<?xml version="1.0" encoding="UTF-8"?>
<svg id="Layer_2" xmlns="http://www.w3.org/2000/svg" version="1.1" viewBox="0 0 559.2 252.5">
  <!-- Generator: Adobe Illustrator 29.1.0, SVG Export Plug-In . SVG Version: 2.1.0 Build 142)  -->
  <defs>
    <style>
      .st0 {
        fill: #fff;
      }

      .st1 {
        fill: #633994;
      }
    </style>
  </defs>
  <g id="Layer_1-2">
    <g>
      <path class="st1" d="M550.9,90.4c1.8-4.3,3.4-8.6,4.9-12.7,2.2-6.2,3.4-12.5,3.4-18.9v-1.7c-.2-5.8-1-11.7-2.7-17.7-1.8-6.7-4.7-12.8-8.5-18.3-4.3-6.1-9.9-11.2-16.7-15C524.2,2,515.7,0,506.2,0s-18,2-24.9,5.9c-2.2,1.2-4.2,2.6-6.1,4.1-2.6-2.1-5.6-4-8.9-5.5C460.1,1.5,452.6,0,444.1,0s-16.3,1.8-23.1,5.4c-6.5,3.4-12,8.1-16.3,14-4,5.4-7,11.6-9,18.5-1.6,5.7-2.4,11.6-2.6,17.8-2-.8-3.9-1.5-6-2.2-4.9-1.5-10-2.7-15.1-3.4-4.7-.7-9.4-1.2-13.8-1.5-4.3-.2-8-.4-11.4-.4s-9.4.5-14.6,1.5c-4.8.9-9.7,2.3-14.6,4-5,1.8-9.9,4-14.6,6.7-5.2,2.9-9.9,6.4-14,10.3-4.5,4.3-8.1,9.2-10.9,14.6-.5-.6-1-1.3-1.6-1.8-2.9-3-5.9-6-9-9-2.7-2.7-5.5-5.4-8.2-8.3-2.1-2.2-4.1-4.7-5.9-7.3-.7-1.1-1.8-3-3.1-6.2-1.5-3.7-2.9-7.4-4.3-11.2-1.5-4.1-3.1-8-4.6-11.7-2.4-5.9-5.3-10.6-8.7-14.2-6.3-6.9-13.9-11.5-22.4-13.7-6.5-1.6-13.4-2.2-20.6-1.8-4.6.3-9.2,1-13.7,2-4.9,1.1-9.6,2.7-14.1,4.8-4.7,2.2-9.1,4.9-13.1,8.1-4.6,3.6-8.5,8-11.6,12.9-3.4,5.3-5.5,11.2-6.3,17.5-.5,4.1-.8,8.6-.8,13.4,0,3.9,0,8,.2,12.3,0,.7,0,1.4,0,2.1-1.5-1.8-3.1-3.6-4.9-5.2-4.2-3.7-9.1-6.5-14.5-8.3-4.9-1.7-10.1-2.5-15.4-2.5-8.8,0-16.7,3.2-22.9,9.1-.8.8-1.6,1.5-2.3,2.4-.5-.5-1-1-1.6-1.5-10.1-9.1-24.6-11.1-39.1-5.2-5.2,2.1-10,5.2-14.2,9-4.1,3.7-7.5,7.9-10.2,12.7C1.8,89.8,0,96.5,0,103.5s1.7,13.8,5.1,20.1c2.4,4.4,5.3,8.8,8.8,13.1,2.9,3.5,6,7.1,9.2,10.5,2.5,2.7,4.9,5.5,7.1,8.4,1.6,2.1,3,4.3,4,6.4.3.6.4,1.1.4,1.4,0,.2-.2.7-.5,1.4-1.5,3.2-3.2,6.5-5,9.9-2.2,4-4.2,7.9-6,11.6-3.2,6.4-4.8,12.8-4.8,18.8,0,9.2,2.3,17.4,6.9,24.3,4.1,6.2,9.4,11.2,15.8,14.8,5.3,3,11.1,5.2,17.2,6.5,5.5,1.2,10.7,1.8,15.8,1.8s11.1-.6,16.5-1.9c6.3-1.5,12.1-3.9,17.2-7.2,5.7-3.7,10.5-8.6,14.1-14.5,4.1-6.6,6.1-14.2,6.1-22.7s-.1-3-.2-4.5c7.4,2.9,15.6,4.4,24.9,4.4s4,0,6.1-.2c11.2-.7,20.1-3.3,27.1-7.8,7.2-4.7,12.6-10.7,16.1-17.9,1-2.1,1.8-4.2,2.5-6.3,4.8,5,10.6,9.1,17.2,12.3,7.9,3.7,17.1,5.2,27.3,4.6,6-.4,11.5-1.5,16.6-3.4.8,8,2.9,15.7,6.5,22.8,4.3,8.7,10.1,16.3,17.3,22.7,7.1,6.3,15.2,11.2,24.2,14.6,9,3.4,18.5,5.1,28.1,5.1s25-1.5,35.9-4.4c11.7-3.2,22-8.2,30.6-14.9,9.2-7.1,16.3-16.2,21.1-27.1.8-1.8,1.4-3.7,2.1-5.6,5.6,3.2,12.9,5.5,22.4,5.5s22.8-4.9,30.1-13.6c1.1,1,2.2,2,3.4,2.9,6.4,4.9,14.4,7.4,23.1,7.4s13.8-.9,19.4-2.9c6.5-2.3,12-5.8,16.3-10.5,4.3-4.7,7.4-10.4,8.9-16.7,1.2-4.6,1.7-9.6,1.7-14.9s-.8-12.5-2.4-18.4c-1.2-4.3-2.5-8.8-4-13.4-1.2-3.6-2.3-7.2-3.3-10.9-.6-2.2-.9-4.4-.9-6.7s.3-4.8,1-7c1.2-3.8,2.5-7.4,4-10.9h0Z"/>
      <path class="st0" d="M70.9,121.9c.9,0,1.7-1.1,2.3-3.2.6-2.1,1.3-4.8,2.1-8,.8-3.2,1.7-6.7,2.7-10.4,1-3.7,2.3-7.2,3.8-10.4,1.5-3.2,3.4-5.9,5.6-8,2.2-2.1,4.9-3.2,8.1-3.2s5.8.5,8.4,1.4c2.7.9,5.1,2.3,7.2,4.2,2.2,1.9,3.9,4.2,5.1,6.8s1.9,5.8,1.9,9.5-.7,6.9-2.1,10.1c-1.4,3.2-3.2,6.4-5.2,9.6-2,3.2-4.3,6.4-6.8,9.5-2.5,3.2-4.8,6.5-6.8,9.9s-3.8,7-5.2,10.6c-1.4,3.7-2.1,7.6-2.1,11.9s.9,7.8,2.6,11.4c1.7,3.6,3.6,7.2,5.7,10.7s4,7.1,5.7,10.6c1.7,3.5,2.6,7.2,2.6,11.1s-1,8.2-2.9,11.3c-1.9,3.1-4.4,5.7-7.5,7.7-3.1,2-6.5,3.4-10.4,4.4-3.9.9-7.7,1.4-11.6,1.4s-7.3-.4-11.2-1.3c-4-.9-7.7-2.2-11.1-4.2-3.4-1.9-6.2-4.6-8.4-7.9-2.2-3.4-3.3-7.5-3.3-12.4s.8-5.8,2.6-9.3c1.7-3.5,3.6-7.1,5.6-10.8,2-3.8,3.9-7.5,5.6-11.2,1.7-3.7,2.6-7,2.6-10s-.8-7.6-2.6-11.2c-1.7-3.6-3.9-7-6.5-10.4-2.6-3.4-5.4-6.6-8.4-9.8-3-3.2-5.7-6.4-8.4-9.6-2.6-3.2-4.8-6.4-6.5-9.6-1.7-3.2-2.6-6.5-2.6-9.9s.8-6.3,2.4-9.1c1.6-2.8,3.6-5.3,6-7.4,2.4-2.2,5-3.8,7.9-5,2.9-1.2,5.6-1.8,8.1-1.8s6.1,1,8.4,3.1c2.3,2,4.2,4.6,5.7,7.8,1.5,3.1,2.8,6.5,3.8,10.1,1,3.6,1.9,6.9,2.6,10.1.7,3.1,1.4,5.7,2,7.8s1.4,3.1,2.3,3.1h0ZM118.3,155.9c-.3-4,.4-7.9,2.1-11.8,1.6-3.9,3.7-7.8,6.1-11.6s5-7.4,7.8-10.9c2.8-3.5,5.2-6.8,7.1-9.9,3.2-4.9,5.6-9.7,7-14.4,1.5-4.7,2.4-9.3,3-13.8.5-4.5.7-8.8.6-12.9-.1-4.2-.2-8.1-.2-11.9,0-3.8.2-7.2.6-10.5.4-3.2,1.4-6.1,3.1-8.7,1.9-3,4.1-5.5,6.8-7.6,2.6-2.1,5.6-3.9,8.7-5.3,3.1-1.5,6.4-2.6,9.9-3.4,3.4-.8,6.8-1.3,10.2-1.5,5-.3,9.7,0,14,1.1,4.3,1.1,8.2,3.5,11.7,7.3,1.7,1.8,3.3,4.5,4.7,7.9,1.4,3.4,2.9,7.1,4.3,11s2.9,7.8,4.5,11.7c1.6,3.9,3.2,7.2,5,9.9,2.6,3.9,5.4,7.4,8.4,10.5,2.9,3.1,5.9,6,8.8,8.8s5.7,5.7,8.5,8.5c2.7,2.8,5.2,5.9,7.4,9.3,2.1,3.3,4,7.1,5.4,11.2,1.5,4.1,2.4,8.9,2.7,14.3.3,4.9,0,9.4-1,13.7-1,4.3-2.6,8-5,11.1-2.4,3.1-5.4,5.6-9.2,7.6-3.8,1.9-8.3,3.1-13.5,3.4-6.6.4-12.2-.4-16.7-2.6-4.6-2.2-8.4-4.9-11.5-8.4-3.1-3.4-5.6-7.2-7.6-11.3-2-4.1-3.9-7.9-5.5-11.4-1.6-3.5-3.3-6.5-4.8-8.8-1.6-2.3-3.4-3.4-5.6-3.3-.4,0-.9.1-1.4.3-.5.2-.9.4-1.2.8-2.9,2.5-4.8,5.6-5.7,9.4-.9,3.8-1.4,7.9-1.6,12.1-.2,4.3-.4,8.6-.5,13-.2,4.4-1.1,8.4-2.8,12-1.7,3.6-4.5,6.6-8.3,9.1s-9.4,3.9-16.8,4.4c-11.7.8-20.9-1.2-27.8-5.9-6.8-4.7-10.6-12.2-11.3-22.5h0ZM181.1,86.1c.1,1.7.6,3.2,1.6,4.3.9,1.2,2.1,2.1,3.5,2.8,1.4.7,2.9,1.1,4.5,1.4,1.6.3,3.2.4,4.6.3,1.4,0,2.9-.3,4.5-.8,1.6-.4,3.1-1.1,4.5-2,1.4-.9,2.5-1.9,3.3-3.1.8-1.2,1.2-2.6,1.1-4.3-.1-1.6-.6-3.2-1.4-4.9-.9-1.7-2-3.2-3.4-4.6-1.4-1.4-3-2.5-4.8-3.3-1.8-.8-3.7-1.1-5.6-1-2,.1-3.8.7-5.4,1.7-1.5,1-2.8,2.3-3.9,3.8-1.1,1.5-1.9,3.1-2.4,4.8-.5,1.7-.7,3.3-.6,4.9h0ZM346.8,69.8c3,0,6.3.1,10.1.3,3.8.2,7.8.7,11.9,1.3,4.1.6,8.1,1.5,12,2.7,3.9,1.2,7.4,2.8,10.5,4.8,3.1,2,5.5,4.4,7.4,7.3,1.9,2.9,2.8,6.3,2.8,10.3,0,5.7-1,9.9-3.2,12.6-2.1,2.7-6.1,4.1-12,4.1s-5.3-.4-7.7-1.3c-2.4-.8-4.8-1.8-7.1-2.8s-4.7-2-7.1-2.8c-2.4-.8-4.9-1.3-7.7-1.3s-5,.7-7.1,2.1-3.2,3.4-3.2,5.9,1.7,4.2,5,6.1c3.4,1.9,7.6,3.9,12.6,6.1,5.1,2.1,10.5,4.4,16.4,6.9,5.9,2.5,11.3,5.5,16.4,9,5.1,3.5,9.3,7.7,12.6,12.4,3.4,4.8,5,10.4,5,16.9,0,10.2-1.7,19.1-5.1,26.8s-8.3,13.9-14.7,18.8c-6.4,4.9-14,8.6-23,11.1-9,2.4-19,3.7-30.2,3.7s-13.9-1.2-20.5-3.8-12.4-6-17.6-10.6c-5.1-4.6-9.2-9.9-12.3-16.1-3.1-6.2-4.6-12.9-4.6-20.2s.5-6.2,1.4-9.5,2.3-6.2,4.1-8.9,4.1-4.8,6.8-6.5,5.9-2.5,9.4-2.5,6.7.7,9.8,2.1,6.2,3,9.3,4.7c3.1,1.7,6.2,3.3,9.5,4.7s6.6,2.1,10.1,2.1c5.2,0,7.8-1.5,7.8-4.6s-1.5-4.1-4.4-6c-3-1.8-6.7-3.8-11.2-5.8-4.5-2.1-9.3-4.3-14.5-6.8-5.2-2.5-10-5.5-14.5-8.9-4.5-3.5-8.2-7.6-11.2-12.3-3-4.7-4.4-10.2-4.4-16.6s.8-7.2,2.5-10.5c1.6-3.2,3.9-6.2,6.6-8.9,2.8-2.7,6-5,9.6-7.1s7.4-3.8,11.2-5.1c3.9-1.4,7.7-2.4,11.5-3.2,3.8-.7,7.3-1.1,10.5-1.1h0ZM463.8,87.9c0,7.9,3.5,11.8,10.6,11.8s7.1-1.1,9.2-3.3c2.2-2.2,3.2-5.4,3.2-9.5s-.4-5.3-1.2-8-1.8-5.3-2.8-7.9c-1-2.6-2-5.3-2.8-8-.8-2.7-1.2-5.5-1.2-8.4s.3-7.5,1-11.4c.7-3.9,2-7.5,3.9-10.7s4.7-5.8,8.3-7.9,8.3-3.1,14.2-3.1,10.6,1.1,14.5,3.3c3.9,2.2,7.1,5.1,9.5,8.6,2.4,3.5,4.2,7.4,5.4,11.6,1.2,4.3,1.8,8.5,1.9,12.5v1.2c0,3.9-.7,7.7-2.1,11.6-1.4,3.8-2.9,7.8-4.6,11.8s-3.2,8.2-4.6,12.6c-1.4,4.3-2.1,8.9-2.1,13.6s.5,8.3,1.7,12.4c1.1,4.1,2.3,8.1,3.7,12.1,1.3,4,2.5,8,3.7,12.1s1.7,8.4,1.7,12.8-.4,6.8-1.1,9.6c-.7,2.9-2,5.3-3.9,7.4s-4.4,3.6-7.6,4.7c-3.2,1.1-7.2,1.7-12.2,1.7s-7.3-1-10-3.1-4.5-4.7-5.2-8.1c-.7-2.8-1-5.8-1.1-9.2s0-6.8,0-10.1.1-6.7,0-10-.6-6.1-1.4-8.6c-.8-2.5-2.2-4.5-4.1-6-1.9-1.5-4.5-2.2-8-2.2s-7,1.1-9.2,3.2-3.4,5-3.4,8.6.2,3.4.7,5.2c.4,1.8.9,3.8,1.4,5.9.5,2.1,1,4.4,1.4,6.8.4,2.4.7,5.1.7,8,0,7.3-1.6,13-4.7,16.9-3.2,4-7.7,6-13.5,6s-13.3-2.5-17-7.4c-3.7-4.9-5.6-12.2-5.6-21.7s.1-5.1.4-8c.3-2.9.6-5.8,1-8.8.4-3,.7-5.9,1-8.8.3-2.9.4-5.5.4-7.8,0-4.4-.5-8.3-1.7-11.6-1.1-3.3-2.3-6.9-3.5-10.6-1-3.1-2.3-6.3-3.9-9.5s-3.2-6.6-4.6-10.1c-1.5-3.5-2.8-7.1-3.9-10.8-1.1-3.7-1.7-7.7-1.7-11.9s.6-9.5,1.8-13.8c1.2-4.3,3-8.1,5.5-11.4s5.5-5.9,9.1-7.8c3.7-1.9,8-2.9,13-2.9s9.7.8,13,2.4c3.4,1.6,6,3.7,8,6.4s3.3,5.7,4,9.2,1.1,7.1,1.1,10.7v1.2c0,3.3-.3,6.6-1,9.7-.7,3.2-1.4,6.3-2.2,9.3-.8,3.1-1.5,6-2.2,8.9s-1,5.7-1,8.5h0Z"/>
    </g>
  </g>
</svg>