<svg width="80" height="80" viewBox="0 0 80 80" fill="none" xmlns="http://www.w3.org/2000/svg">
<rect width="80" height="80" rx="40" fill="#155DFC"/>
<path d="M48.9806 36.8778C49.3767 37.3605 50.6228 38.4037 50.817 38.8668C51.1436 39.6459 50.3089 40.5475 49.7798 41.0337C49.6238 41.1771 49.2613 41.3498 49.1376 41.519C49.0514 41.6366 49.0558 41.7507 49.0073 41.8784C49.2783 41.9304 49.4939 41.8644 49.7484 41.7678C50.6373 41.4294 51.3993 40.6869 51.6954 39.7832C52.9638 40.2668 54.1985 40.1964 55.4066 39.5996C55.5246 39.5414 55.9903 39.2235 56.0322 39.217C56.1735 39.1956 56.3129 39.9082 56.3387 40.0346C56.8144 42.3515 56.3265 45.4869 55.9535 47.8426C55.2181 52.4891 54.7743 56.6117 49.2788 57.2566C44.3538 57.8347 37.0092 56.0958 33.0825 52.9827C32.7821 52.7449 32.2482 52.1209 31.9715 51.9845C31.6003 51.8009 31.6409 52.1367 31.7139 52.4169C31.9619 53.3692 33.5516 54.4544 34.3452 54.9896C35.806 55.9747 37.3975 56.8404 38.9855 57.6064C41.0414 58.5981 43.426 59.6264 45.7105 59.7567C45.8435 59.7642 46.6077 59.636 46.6462 59.6741C46.4582 60.653 46.2864 61.6412 46.0656 62.6131C45.5112 65.0503 45.1776 66.8276 42.371 67.3134C40.1857 67.6916 38.2234 67.1201 36.2681 66.1827C32.7261 64.4849 29.6572 61.7094 27.0902 58.7869L27.0754 58.6239C27.4352 57.7992 27.6866 56.9327 27.8764 56.0538C28.339 53.9101 28.4645 51.7152 27.956 49.5728C27.9096 49.3782 27.6328 48.6791 27.6337 48.5811C27.6342 48.5243 28.1894 48.1321 28.1986 47.628C28.2148 46.7172 27.7487 47.3888 27.4527 47.6288C26.7046 48.2357 26.0155 48.1706 25.1551 47.7832C22.5531 46.6114 20.9117 43.1258 21.4749 40.3389C21.7687 38.8842 22.8102 37.4886 24.4432 38.0015C25.8642 38.4475 26.5148 39.6131 27.036 40.9178C27.2896 41.5522 27.4405 42.4324 27.8095 42.9863C27.8593 43.0615 28.1243 43.3895 28.1956 43.3217L28.2896 42.2133C28.2966 42.1845 28.3259 41.9724 28.4137 42.0537C28.4509 42.0883 28.8033 42.7996 28.9034 42.9422C28.9983 43.0768 29.627 43.9041 29.8137 43.7152C29.8186 43.563 29.7914 43.41 29.7652 43.2614C29.4325 41.3638 28.9563 39.4776 28.7233 37.5699L28.6844 36.6614C30.1583 35.7699 31.6873 34.9684 33.2399 34.2212C33.3146 34.1853 33.3492 34.0896 33.4305 34.062C33.5258 34.0301 33.6832 34.0585 33.7921 34.0091C33.7549 35.9421 34.2289 38.0006 35.7159 39.3219C37.1924 40.6345 39.4302 41.0953 41.3216 40.5107C44.046 39.6686 45.1876 36.6421 44.9034 33.9943C45.2523 33.5618 47.3698 33.2873 47.654 33.5924C47.766 33.7127 47.6484 33.8683 47.6518 33.9895C47.6776 34.8871 48.4148 36.187 48.9823 36.8782L48.9806 36.8778ZM26.3504 42.9212C26.4676 42.7358 25.984 41.4621 25.8721 41.2068C25.5333 40.4351 25.0112 39.6411 24.2098 39.2839C22.5772 38.5554 22.0809 40.335 22.1181 41.5946C22.1325 42.0918 22.5785 44.0147 22.9505 44.3033C23.2627 44.5455 23.3406 44.1083 23.3423 43.8665C23.3497 42.9632 22.8224 42.0935 22.9715 41.0481C23.045 40.5335 23.3231 39.6752 23.9767 40.0416C24.0598 40.0884 24.5285 40.495 24.5884 40.5667C24.7397 40.7482 25.0593 41.4901 25.0243 41.7114C23.9833 42.4341 24.3195 44.0256 25.089 44.8319C25.3269 45.0811 26.1414 45.5647 26.3539 45.1288C26.4751 44.8804 25.8538 44.5123 25.6784 44.3295C25.2285 43.8617 24.9841 43.1905 25.3107 42.5806C25.3422 42.56 25.9377 42.7747 26.0055 42.8224C26.061 42.8613 26.1004 43.0008 26.1607 43.0051C26.1712 43.006 26.3448 42.9299 26.3504 42.9212ZM44.6074 41.9938C44.9734 42.1984 45.6952 42.1009 45.2912 41.6777C45.2283 41.6121 45.1666 41.6663 45.0936 41.6209C44.5729 41.2956 44.9043 40.4355 44.6734 40.2012C44.4255 39.9493 44.1164 40.4692 44.0766 40.6874C44.0054 41.0818 44.2498 41.794 44.607 41.9938H44.6074ZM47.9855 41.164C48.5871 40.6633 47.6169 40.5199 47.24 40.5715C46.9029 40.6174 45.9099 41.2234 46.251 41.5981C46.2873 41.6379 46.296 41.6467 46.3515 41.6502C46.6091 41.6655 47.2365 41.3725 47.5172 41.2859C47.6964 41.2309 47.8005 41.3179 47.9855 41.164ZM53.4915 43.7344C52.7102 43.0677 51.1221 42.4687 50.0955 42.5202C49.1498 42.5679 48.804 42.8587 49.1174 43.8459C49.2657 44.3129 49.5927 44.761 50.1222 44.8109C50.3867 44.8358 50.475 44.6592 50.6425 44.6775C50.7553 44.6898 50.9774 44.9429 51.1484 45.0068C51.2625 45.0492 51.6656 45.1318 51.7745 45.106C51.8611 45.0855 51.9341 44.9827 52.0032 44.9832C52.0941 44.9836 52.1343 45.1021 52.2025 45.1336C52.3617 45.2061 52.6183 45.2765 52.7919 45.291C52.8934 45.2993 53.0355 45.2158 53.1089 45.2542C53.1321 45.2665 53.3643 45.629 53.3957 45.6893C53.4867 45.8629 53.8347 46.9022 53.9764 46.9096C54.223 46.9232 54.418 46.3626 54.453 46.1663C54.6257 45.1987 54.2085 44.3461 53.4919 43.7344H53.4915ZM47.9391 44.6609C48.3317 44.1865 48.6492 43.0432 47.8713 42.7743C46.9418 42.4529 44.3263 43.1499 43.3871 43.5394C42.0413 44.0978 40.5792 45.3155 40.3527 46.8444C40.2093 47.8099 40.7187 47.8252 41.2652 47.1781C41.4253 46.9887 41.9827 46.1418 42.1655 46.0775C42.2494 46.0478 42.2298 46.1895 42.3579 46.2323C42.8952 46.4129 43.4098 45.6373 43.4759 45.6403C43.5038 45.6416 43.5436 45.7601 43.5887 45.789C43.9546 46.0251 44.7635 45.5105 44.8977 45.1152C45.213 45.4615 45.6214 45.4016 46.0039 45.1948C46.1277 45.1279 46.4263 44.8175 46.4552 44.8122C46.4875 44.8065 46.8045 45.068 47.0563 45.0662C47.264 45.0649 47.8075 44.8205 47.9391 44.6609ZM30.5111 43.891C30.2619 43.7423 30.3769 44.8376 30.3887 44.9101C30.4517 45.2997 30.5675 45.7326 30.8399 46.0321C31.2435 46.0356 30.7324 44.0864 30.5111 43.891ZM29.1129 45.1366V45.8362C29.1129 45.9626 29.4788 47.0499 29.6808 46.8637C29.7849 46.5655 29.7114 46.2022 29.6244 45.893C29.5899 45.771 29.3219 45.0881 29.2217 45.071L29.1129 45.1366ZM32.1276 45.6416C32.0441 45.6324 31.9527 45.6215 31.9173 45.7116C31.8849 45.7942 31.8993 46.7281 31.912 46.8847C31.9409 47.2406 32.0559 47.798 32.3707 48.0031C32.6645 48.0027 32.4524 46.9227 32.4144 46.7325C32.3396 46.3617 32.1822 46.0172 32.1276 45.6421V45.6416ZM52.0115 45.8699C51.8493 45.7361 50.5822 46.1816 50.2835 46.2384C48.5219 46.5742 46.7923 46.4527 45.042 46.3972C44.6096 46.3836 43.3373 46.2874 43.0185 46.4942C42.6958 46.7032 43.4068 47.0552 43.5852 47.1037C45.6283 47.6603 49.5306 47.6922 51.4641 46.7631C51.7198 46.6403 52.3919 46.1834 52.0115 45.8699ZM34.1384 49.2225C34.4086 49.0568 34.0807 47.5305 33.9775 47.224C33.9285 47.0788 33.9001 46.9188 33.7694 46.8208C33.5665 46.8243 33.6032 47.927 33.6211 48.105C33.6413 48.3057 33.8568 49.1032 34.0094 49.2033C34.0431 49.2256 34.11 49.24 34.1384 49.2221V49.2225ZM30.5111 47.3888C30.4661 47.3621 30.4324 47.401 30.4058 47.4351C30.2247 47.666 30.383 48.53 30.4626 48.815C30.5137 48.9982 30.8915 49.8552 31.1005 49.7931C31.327 49.7258 31.0065 48.5011 30.9383 48.2956C30.8963 48.1693 30.5754 47.4273 30.5107 47.3888H30.5111ZM35.7583 47.7381C35.677 47.7211 35.6731 47.7613 35.6385 47.8147C35.391 48.1937 35.6149 49.317 35.7937 49.7363C35.8571 49.8854 36.0447 50.3034 36.1728 49.9737C36.2047 49.1806 36.0185 48.4762 35.7583 47.7381ZM55.0834 49.4433C55.2513 49.331 55.3349 48.108 54.9322 48.2174C54.7411 48.2689 54.8167 49.6217 55.0834 49.4433ZM37.857 50.8862C38.0402 50.362 37.8142 49.3734 37.5593 48.8894C37.3503 48.4924 37.2659 48.9069 37.2541 49.1587C37.2335 49.6134 37.4058 50.6781 37.857 50.8862ZM50.4864 48.8815C50.0282 48.8404 49.6036 49.0511 49.1476 49.125C48.9544 49.1565 48.5591 49.212 48.3728 49.2247C47.8075 49.2632 47.1993 49.2072 46.634 49.1871C45.9851 49.5024 46.5575 49.8841 46.9868 49.9982C47.8202 50.219 48.8739 50.177 49.6732 49.8692C50.1117 49.7004 50.6412 49.4438 50.4864 48.8811V48.8815ZM32.5224 49.2252C32.3029 49.0944 32.3462 49.8911 32.3589 49.9794C32.386 50.1678 32.7672 51.2876 32.9815 51.236C33.2368 51.1743 32.912 50.1525 32.849 49.9702C32.7602 49.7136 32.6181 49.4783 32.5224 49.2252ZM39.1622 49.627C38.909 49.4621 38.9409 50.3274 38.9553 50.466C38.9776 50.6781 39.1976 51.4703 39.3405 51.6015C39.6007 51.8402 39.5692 51.0397 39.5574 50.9137C39.5373 50.7008 39.3139 49.7254 39.1626 49.627H39.1622ZM54.2982 51.6295C54.6134 51.5652 54.5784 51.034 54.5588 50.7778C54.5513 50.679 54.3498 49.7516 54.1666 49.8806C54.024 50.4503 54.0083 51.0965 54.2977 51.6291L54.2982 51.6295ZM34.4838 50.5452C34.4514 50.5242 34.4007 50.5364 34.3627 50.539C34.2831 50.5933 34.3894 51.3951 34.4239 51.5434C34.4737 51.7563 34.8699 52.81 35.1038 52.305C35.043 51.9928 34.7182 50.6956 34.4834 50.5452H34.4838ZM53.1172 51.7174C53.1111 51.8088 53.1308 51.9084 53.1146 51.9989C53.056 52.3264 53.0425 52.6963 53.0787 53.0452C53.1054 53.301 53.1977 53.684 53.4451 53.8148C53.7691 53.3854 53.6581 52.6802 53.4744 52.2119C53.4548 52.1616 53.1972 51.6242 53.1172 51.7174ZM36.4583 51.7607V52.4821C36.4583 52.7475 37.0477 54.0019 37.0744 53.1817C37.0809 52.9849 36.9843 52.5665 36.9165 52.3732C36.8877 52.291 36.5912 51.6216 36.4579 51.7607H36.4583ZM38.4696 52.3072C38.4381 52.4305 38.4696 52.8026 38.4696 52.963C38.4696 53.1008 38.7861 53.9472 38.8845 54.0347C39.0638 54.1938 39.1272 54.0045 39.1294 53.8379C39.1337 53.5148 38.8369 52.5297 38.6003 52.3085C38.5579 52.2687 38.4954 52.2075 38.47 52.3076L38.4696 52.3072ZM40.8297 52.6793C40.6807 52.5914 40.6225 53.1572 40.6181 53.2311C40.5945 53.6469 40.6885 54.3561 40.9246 54.7054C41.1389 55.0224 41.2167 54.6276 41.2233 54.4055C41.2324 54.1038 41.0755 53.2061 40.96 52.9211C40.9469 52.8887 40.8416 52.6863 40.8297 52.6793ZM42.733 53.2472C42.5214 53.2932 42.5621 54.2909 42.5844 54.4885C42.6018 54.6433 42.8375 55.4776 43.0373 55.4334C43.252 55.196 43.221 54.6748 43.1869 54.367C43.1702 54.2175 42.9092 53.2088 42.733 53.2472ZM51.9266 53.4322C51.8908 53.4138 51.7365 53.4103 51.7203 53.4252C51.6263 53.5113 51.6844 54.5992 51.7308 54.7863C51.924 55.5628 52.276 55.2546 52.276 54.6245C52.276 54.4531 52.0434 53.4921 51.9266 53.4322ZM44.7587 53.7369C44.5961 53.6333 44.558 54.0286 44.5484 54.1444C44.5134 54.5554 44.5829 55.3774 44.809 55.7185C45.1605 56.2488 45.2191 55.2633 45.202 55.0189C45.1863 54.7894 44.9332 53.848 44.7591 53.7369H44.7587ZM49.9749 53.7785C49.9053 54.4794 49.8345 55.3079 50.3404 55.8697C50.6482 55.5029 50.6333 54.8278 50.514 54.3854C50.4597 54.1847 50.2459 53.5979 49.9749 53.7785ZM46.5151 53.9468C46.3804 54.3045 46.3974 55.7609 46.7083 55.9611C46.7503 55.9882 46.7844 56.0162 46.839 56.0009C47.1866 55.8907 46.888 54.1453 46.5151 53.9472V53.9468ZM48.3763 53.9499C48.086 54.0386 48.1341 55.9161 48.6352 56.0884C48.9596 55.6489 48.8485 54.7964 48.6658 54.3097C48.6299 54.214 48.4918 53.9145 48.3763 53.9499Z" fill="white"/>
<path d="M49.6877 21.611C51.1468 22.8821 52.1983 24.3022 53.0802 26.0235C53.6154 27.0685 54.1335 28.218 54.3412 29.3749C54.2179 29.3474 54.1457 29.2499 54.022 29.1917C52.6058 28.5324 48.9667 28.542 48.6244 30.5003C48.5457 30.9498 48.714 31.1505 48.8723 31.5322C48.5238 31.7867 48.3026 32.1592 48.0844 32.5195C47.6135 32.307 47.0936 32.3048 46.5816 32.349C45.9026 32.4071 45.2013 32.6248 44.5704 32.8754C44.4891 32.8653 44.04 32.1924 43.9202 32.0578C43.8004 31.9231 43.4113 31.6914 43.4126 31.5016C43.4148 31.0845 43.6627 31.0303 43.4454 30.4557C42.9767 29.218 40.624 28.9823 39.499 29.0256C37.44 29.1051 34.9461 29.9079 33.7914 31.7128C33.6891 31.8728 33.4538 32.4268 33.3554 32.5011C33.2663 32.5684 32.8771 32.6887 32.714 32.7779C31.659 33.3546 30.6608 34.0423 29.597 34.6016C29.4282 34.6903 28.758 35.0681 28.6456 35.0939C28.5888 35.107 28.5586 35.1127 28.5227 35.0589C28.4821 34.9977 28.6937 33.7682 28.7313 33.6047C28.9351 32.7175 29.4029 31.837 29.66 30.9481C30.1497 29.2529 30.0937 27.5307 28.8087 26.2046V26.1403C29.3049 25.9129 29.7168 25.4792 30.1667 25.1591C32.1417 23.7552 33.0468 23.3818 35.514 23.6092C36.5568 23.7054 36.9023 23.7701 37.9529 23.4579C39.7967 22.9096 40.2252 22.1606 41.5233 20.9845C43.8848 18.8451 47.4832 19.6903 49.6886 21.6115L49.6877 21.611Z" fill="white"/>
<path d="M42.5193 32.0177C43.1476 32.4366 43.7667 33.3797 43.9246 34.1313C44.0973 34.9541 43.9075 36.2182 43.65 37.027C42.1507 41.7369 35.131 40.5896 34.7952 35.2589C34.7052 33.8313 34.9268 32.8493 36.2442 32.1572C37.8746 31.3007 40.9374 30.9622 42.5193 32.0173V32.0177ZM42.5705 34.614C42.5967 34.6 42.692 34.3792 42.7008 34.3293C42.8687 33.3403 41.4844 32.7763 40.7083 32.6255C39.2886 32.3496 37.221 32.9446 36.2376 34.0307C35.9499 34.3486 35.2263 35.408 36.0658 35.3914C36.7059 35.0022 37.3425 34.1531 38.1081 34.022C38.7548 33.9114 38.4946 34.1619 38.5112 34.5589C38.5318 35.0429 38.8807 35.8977 39.3761 36.0564C40.7201 36.4871 41.118 34.9393 40.8749 33.924C41.2942 33.8934 42.2509 34.7832 42.5705 34.614Z" fill="white"/>
<path d="M56.1929 32.2007C58.0419 33.9347 57.286 37.6639 55.1291 38.8409C54.2708 39.3091 52.8337 39.4989 51.957 38.9948C51.598 38.7884 51.6295 38.5676 51.431 38.2965C50.9833 37.6862 50.4639 37.2756 49.9676 36.7417C45.8765 32.3423 52.8511 29.0662 56.1933 32.2002L56.1929 32.2007ZM51.4555 33.6155V34.2495C51.4555 34.7257 51.804 35.479 52.2736 35.6613C52.6833 35.8205 52.9368 35.8323 53.197 35.4659C53.5927 34.908 53.5656 34.2089 53.4235 33.5714C53.768 33.5408 54.2813 34.5941 54.3819 34.6024C54.5476 34.6159 54.6801 34.1184 54.6941 33.9898C54.8051 32.9619 53.4934 32.4595 52.657 32.3913C51.7345 32.3161 49.8522 32.8202 49.6891 33.8849C49.6686 34.0182 49.6939 34.2841 49.8369 34.3374C49.8697 34.3497 50.3126 34.2504 50.3769 34.2194C50.6187 34.1017 50.7179 33.8053 50.9186 33.7117C50.9816 33.6824 51.4358 33.595 51.4555 33.6147V33.6155ZM55.4675 32.4499C55.3044 32.3782 55.2703 32.6528 55.2437 32.7817C55.057 33.6789 55.1164 36.3268 55.4693 37.144C55.6717 37.6127 56.0233 36.9931 56.1413 36.7487C56.5064 35.9936 56.7171 34.6596 56.4854 33.8534C56.398 33.5482 55.938 32.6676 55.6669 32.5251C55.6171 32.4989 55.5353 32.4792 55.4671 32.4495L55.4675 32.4499Z" fill="white"/>
<path d="M47.8011 13.6576C48.3595 14.2908 48.8413 15.2347 49.4224 15.7734C50.3545 16.6374 51.4839 16.7768 51.7121 18.3391C51.835 19.1785 51.5228 20.7307 50.581 20.9786C50.5666 20.5243 50.8438 20.1571 50.9544 19.7128C51.0882 19.1764 51.0917 18.5865 50.9531 18.0483C50.6912 17.0304 49.7429 16.7161 49.0271 16.083C47.9117 15.0961 47.422 13.7189 45.914 13.0748C43.403 12.0019 41.087 13.5265 38.8921 14.4722C36.6929 15.4201 34.4298 14.3533 32.1907 15.4206C30.5633 16.1958 29.5809 17.8148 28.0768 18.7418C26.7039 19.5882 24.0469 20.0801 23.1068 21.2812C23.0294 21.38 22.858 21.6209 22.7723 21.7446C22.0116 22.8443 22.0907 24.1184 21.4677 25.2495C20.7913 26.4781 19.5714 26.8375 19.0214 28.356C18.4941 29.8124 18.8556 30.0984 19.219 31.4179C19.6308 32.9132 19.1245 34.3701 19.5565 35.8462C19.8001 36.6791 20.3671 37.4889 20.4979 38.3804C19.5889 37.3721 18.8172 35.9905 18.759 34.5983C18.7406 34.1611 18.8631 33.6098 18.8661 33.1939C18.8827 31.0113 17.5934 30.1517 18.6178 27.7775C19.2679 26.2708 20.765 25.7965 21.2385 24.2771C21.5048 23.4223 21.4677 22.7162 21.9246 21.8588C23.3622 19.1584 26.4512 19.3967 28.5394 17.6303C28.9661 17.2692 29.3422 16.7366 29.7457 16.3427C31.3084 14.8181 32.8763 14.1316 35.083 14.1132C35.6405 14.1084 36.3007 14.2763 36.8271 14.2671C38.3141 14.2413 40.0058 13.0822 41.3905 12.5549C43.6461 11.6958 46.1143 11.7469 47.8003 13.659L47.8011 13.6576Z" fill="white"/>
<path d="M45.6578 16.5472C46.0693 16.9538 46.4182 17.454 46.6023 18.0066C46.2267 17.7845 45.981 17.3849 45.6111 17.14C44.9618 16.7102 44.121 16.5192 43.3593 16.7098C41.3629 17.21 40.8238 19.9833 39.2017 21.1687C38.2341 21.8757 37.1402 22.3173 35.9636 22.2635C35.2072 22.229 34.1045 22.1157 33.3787 22.2508C33.1303 22.2972 32.7871 22.5276 32.4797 22.4664C32.7464 22.135 33.2436 21.8577 33.6506 21.7358C34.9824 21.3361 36.2347 21.797 37.6194 21.3322C39.8261 20.592 40.2239 18.1155 41.8653 16.7461C42.9671 15.8266 44.5464 15.4493 45.6574 16.5472H45.6578Z" fill="white"/>
<path d="M30.9494 20.9368L28.8716 23.3376C27.8813 24.1623 26.3707 25.2016 25.0918 24.4119C25.766 24.2003 26.5145 24.1518 27.159 23.8129C28.3006 23.2126 28.96 22.0264 29.9481 21.3115C30.1195 21.1874 30.767 20.744 30.9494 20.9364V20.9368Z" fill="white"/>
<path d="M25.2649 28.3262C25.4463 29.4512 24.9863 30.6461 24.2579 31.4948C23.8084 32.0186 23.2457 32.4908 22.5982 32.7422C22.5772 32.5468 22.7259 32.3994 22.8247 32.2477C23.5592 31.1179 24.6549 30.1809 24.9951 28.7778L25.2649 28.3262Z" fill="white"/>
<path d="M38.1893 17.5532C37.5169 18.4377 34.9018 18.9204 33.8927 18.5838C33.7851 18.5479 33.73 18.5138 33.6614 18.4229L35.9853 18.0368C36.4684 17.8483 36.9721 17.6892 37.4508 17.4911C37.586 17.4352 38.3109 17.0434 38.3612 17.0469C38.5334 17.0587 38.2296 17.5016 38.1898 17.5536L38.1893 17.5532Z" fill="white"/>
<path d="M27.5207 30.6239C27.2535 30.9641 26.7284 31.2719 26.327 31.4201C26.0319 31.5294 26.4713 31.1118 26.4888 31.0882C27.1193 30.2404 27.6497 29.2772 27.8586 28.2296L28.0414 27.1895C28.6938 28.189 28.2032 29.7538 27.5202 30.6239H27.5207Z" fill="white"/>
</svg>
